<?xml version="1.0" standalone="no"?>
<!DOCTYPE svg PUBLIC "-//W3C//DTD SVG 20010904//EN"
 "http://www.w3.org/TR/2001/REC-SVG-20010904/DTD/svg10.dtd">
<svg version="1.0" xmlns="http://www.w3.org/2000/svg"
 width="512.000000pt" height="512.000000pt" viewBox="0 0 512.000000 512.000000"
 preserveAspectRatio="xMidYMid meet">
<metadata>
Created by potrace 1.11, written by Peter Selinger 2001-2013
</metadata>
<g transform="translate(0.000000,512.000000) scale(0.100000,-0.100000)"
fill="#000000" stroke="none">
<path d="M1230 4900 c-72 -20 -129 -71 -150 -136 -7 -20 -13 -91 -14 -158 l-1
-121 -50 -7 c-167 -24 -307 -141 -355 -295 -20 -64 -20 -89 -20 -1713 0 -1030
4 -1667 10 -1699 29 -154 155 -289 310 -331 24 -6 99 -12 168 -13 l125 -2 12
-42 c42 -142 173 -260 323 -292 108 -23 271 -8 402 36 138 46 305 146 413 246
l57 54 818 0 c588 0 833 3 873 12 123 26 251 137 302 261 l22 55 3 1686 c2
1671 2 1686 -18 1745 -29 83 -85 160 -153 211 -61 44 -164 83 -221 83 l-32 0
-1 133 c-1 154 -12 187 -74 240 -103 89 -260 61 -325 -57 -25 -46 -27 -57 -28
-182 l0 -134 -478 0 c-263 0 -479 1 -479 3 -1 1 -5 58 -8 127 l-6 125 -77 3
-78 3 0 -131 0 -130 -503 0 -504 0 0 128 c0 139 -15 193 -64 239 -51 46 -138
69 -199 53z"/>
</g>
</svg>
